<svg width="18" height="25" viewBox="0 0 18 25" fill="none" xmlns="http://www.w3.org/2000/svg">
<path fill-rule="evenodd" clip-rule="evenodd" d="M9.32751 1.30011C9.12612 1.16579 8.8639 1.16579 8.66249 1.30011L6.30872 2.86921C5.77164 3.2272 5.08375 3.26997 4.50632 2.98125L2.06722 1.76167C1.66846 1.56229 1.19922 1.85222 1.19922 2.29819V22.4039C1.19922 22.8499 1.66845 23.1398 2.06722 22.9404L4.50632 21.7207C5.08375 21.4322 5.77164 21.475 6.30872 21.8332L8.66249 23.402C8.86388 23.5364 9.1261 23.5364 9.32751 23.402L11.6813 21.8332C12.2186 21.475 12.9063 21.4322 13.4837 21.7207L15.9228 22.9404C16.3215 23.1398 16.7908 22.8499 16.7908 22.4039V2.29819C16.7908 1.85225 16.3216 1.56234 15.9228 1.76167L13.4837 2.98125C12.9063 3.26997 12.2186 3.22721 11.6813 2.86921L9.32751 1.30011ZM7.99712 0.302226C8.60148 -0.100742 9.38852 -0.100742 9.99289 0.302226L12.3465 1.87112C12.5256 1.99058 12.7548 2.00484 12.9474 1.90866L15.3865 0.689089C16.5826 0.0909436 17.99 0.96075 17.99 2.29818V22.4039C17.99 23.7414 16.5825 24.6111 15.3865 24.013L12.9474 22.7934C12.7548 22.6973 12.5255 22.7115 12.3465 22.8308L9.99289 24.3999C9.38852 24.8028 8.60148 24.8028 7.99712 24.3999L5.64355 22.8308C5.46445 22.7115 5.23516 22.6973 5.04263 22.7934L2.60353 24.013C1.40744 24.6111 0 23.7413 0 22.4039V2.29818C0 0.960739 1.40749 0.090995 2.60353 0.689089L5.04263 1.90866C5.23518 2.00484 5.46447 1.99059 5.64355 1.87112L7.99712 0.302226Z" fill="#CACACA"/>
<path fill-rule="evenodd" clip-rule="evenodd" d="M4.97266 15.525L12.1687 8.32898L13.0168 9.17708L5.82076 16.3731L4.97266 15.525Z" fill="#CACACA"/>
<path fill-rule="evenodd" clip-rule="evenodd" d="M6.59589 8.15325C6.2648 8.15325 5.99635 8.4219 5.99635 8.75299C5.99635 9.08408 6.2648 9.35273 6.59589 9.35273C6.92718 9.35273 7.19562 9.08408 7.19562 8.75299C7.19562 8.4219 6.92718 8.15325 6.59589 8.15325ZM4.79688 8.75299C4.79688 7.75953 5.60242 6.95398 6.59589 6.95398C7.58956 6.95398 8.3949 7.75953 8.3949 8.75299C8.3949 9.74645 7.58956 10.552 6.59589 10.552C5.60242 10.552 4.79688 9.74645 4.79688 8.75299Z" fill="#CACACA"/>
<path fill-rule="evenodd" clip-rule="evenodd" d="M11.3932 15.3492C11.062 15.3492 10.7935 15.6178 10.7935 15.9489C10.7935 16.28 11.062 16.5487 11.3932 16.5487C11.7243 16.5487 11.9928 16.28 11.9928 15.9489C11.9928 15.6178 11.7243 15.3492 11.3932 15.3492ZM9.59424 15.9489C9.59424 14.9554 10.3996 14.1499 11.3932 14.1499C12.3867 14.1499 13.1923 14.9554 13.1923 15.9489C13.1923 16.9424 12.3867 17.7479 11.3932 17.7479C10.3996 17.7479 9.59424 16.9424 9.59424 15.9489Z" fill="#CACACA"/>
</svg>
