<svg width="30" height="29" viewBox="0 0 30 29" fill="none" xmlns="http://www.w3.org/2000/svg">
<path d="M3.21428 28.1138H6.42857C7.01786 28.1138 7.5 27.627 7.5 27.0321C7.5 26.4371 7.01786 25.9503 6.42857 25.9503H3.21428C2.625 25.9503 2.14286 25.4636 2.14286 24.8686V12.9479C2.14286 12.6126 2.30357 12.2989 2.56067 12.0934L14.3678 2.36899C14.732 2.08769 15.2677 2.08769 15.6535 2.39072L27.4178 12.0719C27.7072 12.2991 27.8571 12.6128 27.8571 12.9482V24.8688C27.8571 25.4638 27.375 25.9506 26.7857 25.9506H12.8571C12.2679 25.9506 11.7857 26.4373 11.7857 27.0323C11.7857 27.6272 12.2679 28.114 12.8571 28.114L26.7857 28.1138C28.5536 28.1138 30 26.6534 30 24.8686V12.9479C30 11.9526 29.5286 10.9899 28.7463 10.3735L16.982 0.692344C15.8034 -0.227127 14.1963 -0.227127 13.0393 0.670613L1.23214 10.4062C0.471369 11.0011 0 11.9638 0 12.9591V24.8798C0 26.6647 1.44643 28.125 3.21428 28.125V28.1138ZM9.64286 25.9503C10.2321 25.9503 10.7143 26.4371 10.7143 27.0321C10.7143 27.627 10.2321 28.1138 9.64286 28.1138C9.05357 28.1138 8.57143 27.627 8.57143 27.0321C8.57143 26.4371 9.05357 25.9503 9.64286 25.9503Z" fill="#266342"/>
<g clip-path="url(#clip0_10_6)">
<path d="M9.48991 20.714V23.6347C9.48991 24.1701 9.90318 24.6082 10.4083 24.6082C10.9134 24.6082 11.3266 24.1701 11.3266 23.6347V20.714C11.3266 18.5624 12.9705 16.8198 15.0001 16.8198C17.0298 16.8198 18.6736 18.5624 18.6736 20.714V23.6347C18.6736 24.1701 19.0869 24.6082 19.592 24.6082C20.0971 24.6082 20.5103 24.1701 20.5103 23.6347V20.714C20.5103 17.4915 18.0399 14.8727 15.0001 14.8727C11.9603 14.8727 9.48991 17.4915 9.48991 20.714Z" fill="#7CB79A"/>
</g>
<defs>
<clipPath id="clip0_10_6">
<rect width="12" height="10.8" fill="white" transform="translate(9 14)"/>
</clipPath>
</defs>
</svg>
