<svg width="30" height="28" viewBox="0 0 30 28" fill="none" xmlns="http://www.w3.org/2000/svg">
<path d="M30 24.8885C30 24.5791 29.8736 24.2825 29.6486 24.0635C29.4236 23.8448 29.1182 23.7219 28.8 23.7219H12.8003C12.3715 23.7219 11.9753 23.9442 11.761 24.3052C11.5468 24.6661 11.5468 25.1109 11.761 25.4719C11.9753 25.8328 12.3715 26.0552 12.8003 26.0552H28.8C29.1182 26.0552 29.4236 25.9323 29.6486 25.7135C29.8736 25.4948 30 25.1982 30 24.8885ZM28.8 15.1665H12.8003C12.3715 15.1665 11.9753 14.9441 11.761 14.5831C11.5468 14.2222 11.5468 13.7774 11.761 13.4165C11.9753 13.0555 12.3715 12.8331 12.8003 12.8331H28.8C29.2288 12.8331 29.625 13.0555 29.8393 13.4165C30.0536 13.7774 30.0536 14.2222 29.8393 14.5831C29.625 14.9441 29.2288 15.1665 28.8 15.1665ZM28.8 4.27775H12.8003C12.3715 4.27775 11.9753 4.05535 11.761 3.69441C11.5468 3.33347 11.5468 2.88867 11.761 2.52774C11.9753 2.1668 12.3715 1.9444 12.8003 1.9444H28.8C29.2288 1.9444 29.625 2.1668 29.8393 2.52774C30.0536 2.88868 30.0536 3.33348 29.8393 3.69441C29.625 4.05535 29.2288 4.27775 28.8 4.27775ZM6.39988 26.4445C6.39988 26.857 6.2314 27.2526 5.9314 27.5443C5.6314 27.8362 5.22429 28 4.79997 28H1.5999C1.17561 28 0.768745 27.8362 0.468746 27.5443C0.16848 27.2526 0 26.857 0 26.4445V23.3333C0 22.9208 0.16848 22.525 0.468746 22.2333C0.768745 21.9416 1.17565 21.7778 1.5999 21.7778H4.79997C5.22426 21.7778 5.6314 21.9416 5.9314 22.2333C6.2314 22.525 6.39988 22.9208 6.39988 23.3333V26.4445ZM6.39988 15.5558V15.5555C6.39988 15.9683 6.2314 16.3639 5.9314 16.6556C5.6314 16.9472 5.22429 17.1113 4.79997 17.1113H1.5999C1.17561 17.1113 0.768745 16.9472 0.468746 16.6556C0.16848 16.3639 0 15.9683 0 15.5555V12.4443V12.4446C0 12.0318 0.16848 11.6363 0.468746 11.3446C0.768745 11.0529 1.17565 10.8889 1.5999 10.8889H4.79997C5.22426 10.8889 5.6314 11.0529 5.9314 11.3446C6.2314 11.6363 6.39988 12.0319 6.39988 12.4446V15.5558ZM4.79997 6.22242H1.5999V6.22216C1.17561 6.22216 0.768745 6.05836 0.468746 5.76669C0.16848 5.47503 0 5.07922 0 4.66669V1.55547C0 1.14297 0.16848 0.747398 0.468746 0.45573C0.768745 0.163803 1.17565 0 1.5999 0H4.79997C5.22426 0 5.6314 0.163803 5.9314 0.45573C6.2314 0.747398 6.39988 1.143 6.39988 1.55547V4.66669C6.39988 5.07919 6.2314 5.47503 5.9314 5.76669C5.6314 6.05836 5.22429 6.22216 4.79997 6.22216V6.22242Z" fill="#DADADA"/>
</svg>
