<svg width="30" height="30" viewBox="0 0 30 30" fill="none" xmlns="http://www.w3.org/2000/svg">
<path d="M6.13628 26.5909C5.41308 26.5909 4.71933 26.3037 4.20797 25.7921C3.69639 25.2808 3.4092 24.587 3.4092 23.8638C3.4092 23.1404 3.69639 22.4469 4.20797 21.9353C4.71933 21.4239 5.41308 21.1365 6.13628 21.1365C6.85972 21.1365 7.55324 21.4239 8.06483 21.9353C8.57619 22.4469 8.8636 23.1404 8.8636 23.8638C8.8636 24.587 8.57619 25.2808 8.06483 25.7921C7.55325 26.3037 6.85972 26.5909 6.13628 26.5909ZM6.13628 22.5001C5.77468 22.5001 5.42792 22.6439 5.17225 22.8996C4.91634 23.1552 4.77275 23.502 4.77275 23.8638C4.77275 24.2254 4.91634 24.5722 5.17225 24.8279C5.42792 25.0838 5.77471 25.2274 6.13628 25.2274C6.49812 25.2274 6.84488 25.0838 7.10056 24.8279C7.35624 24.5722 7.50005 24.2254 7.50005 23.8638C7.50005 23.502 7.35624 23.1552 7.10056 22.8996C6.84488 22.6439 6.49809 22.5001 6.13628 22.5001ZM6.13628 17.7273V17.7275C5.41308 17.7275 4.71933 17.4401 4.20797 16.9288C3.69639 16.4172 3.4092 15.7234 3.4092 15.0002C3.4092 14.277 3.69639 13.5833 4.20797 13.0717C4.71933 12.5603 5.41308 12.2729 6.13628 12.2729C6.85972 12.2729 7.55324 12.5603 8.06483 13.0717C8.57619 13.5833 8.8636 14.277 8.8636 15.0002C8.8636 15.7234 8.57619 16.4172 8.06483 16.9288C7.55325 17.4401 6.85972 17.7275 6.13628 17.7275V17.7273ZM6.13628 13.6365V13.6367C5.77468 13.6367 5.42792 13.7803 5.17225 14.036C4.91634 14.2916 4.77275 14.6386 4.77275 15.0002C4.77275 15.3619 4.91634 15.7088 5.17225 15.9645C5.42792 16.2202 5.77471 16.3638 6.13628 16.3638C6.49812 16.3638 6.84488 16.2202 7.10056 15.9645C7.35624 15.7088 7.50005 15.3619 7.50005 15.0002C7.50005 14.6386 7.35624 14.2916 7.10056 14.036C6.84488 13.7803 6.49809 13.6367 6.13628 13.6367V13.6365ZM6.13628 8.86372V8.86395C5.41308 8.86395 4.71933 8.57653 4.20797 8.06518C3.69639 7.55359 3.4092 6.86007 3.4092 6.13663C3.4092 5.41343 3.69639 4.71968 4.20797 4.20832C4.71933 3.69673 5.41308 3.40955 6.13628 3.40955C6.85972 3.40955 7.55324 3.69673 8.06483 4.20832C8.57619 4.71968 8.8636 5.41343 8.8636 6.13663C8.8636 6.86007 8.57619 7.55359 8.06483 8.06518C7.55325 8.57653 6.85972 8.86395 6.13628 8.86395V8.86372ZM6.13628 4.77286V4.77309C5.77468 4.77309 5.42792 4.91668 5.17225 5.17258C4.91634 5.42826 4.77275 5.77505 4.77275 6.13663C4.77275 6.49846 4.91634 6.84522 5.17225 7.1009C5.42792 7.35658 5.77471 7.50039 6.13628 7.50039C6.49812 7.50039 6.84488 7.35658 7.10056 7.1009C7.35624 6.84522 7.50005 6.49843 7.50005 6.13663C7.50005 5.77502 7.35624 5.42826 7.10056 5.17258C6.84488 4.91668 6.49809 4.77309 6.13628 4.77309V4.77286ZM25.9091 23.8637C25.9091 23.6829 25.8372 23.5094 25.7094 23.3816C25.5816 23.2537 25.4081 23.1818 25.2273 23.1818H11.5913C11.2146 23.1818 10.9094 23.487 10.9094 23.8637C10.9094 24.2402 11.2146 24.5454 11.5913 24.5454H25.2273C25.4081 24.5454 25.5816 24.4737 25.7094 24.3458C25.8372 24.2178 25.9091 24.0445 25.9091 23.8637V23.8637ZM25.9091 15C25.9091 14.8192 25.8372 14.6457 25.7094 14.5179C25.5816 14.39 25.4081 14.3181 25.2273 14.3181H11.5913C11.2146 14.3181 10.9094 14.6236 10.9094 15C10.9094 15.3764 11.2146 15.6819 11.5913 15.6819H25.2273C25.4081 15.6819 25.5816 15.61 25.7094 15.4821C25.8372 15.3543 25.9091 15.1808 25.9091 15ZM25.9091 6.13628C25.9091 5.95548 25.8372 5.78221 25.7094 5.65415C25.5816 5.52631 25.4081 5.45463 25.2273 5.45463H11.5913C11.2146 5.45463 10.9094 5.75985 10.9094 6.13628C10.9094 6.51295 11.2146 6.81816 11.5913 6.81816H25.2273C25.4081 6.81816 25.5816 6.74626 25.7094 6.61842C25.8372 6.49058 25.9091 6.31708 25.9091 6.13628V6.13628ZM30 25.9091V22.4999C30 22.1235 29.6946 21.8183 29.3181 21.8183C28.9417 21.8183 28.6362 22.1235 28.6362 22.4999V25.9091C28.6362 26.6323 28.349 27.3261 27.8375 27.8375C27.3261 28.349 26.6323 28.6362 25.9091 28.6362H4.09086C3.36765 28.6362 2.6739 28.349 2.16254 27.8375C1.65096 27.3261 1.36377 26.6323 1.36377 25.9091V4.09085C1.36377 3.36765 1.65096 2.6739 2.16254 2.16254C2.6739 1.65096 3.36765 1.36377 4.09086 1.36377H25.9091C26.6323 1.36377 27.3261 1.65096 27.8375 2.16254C28.349 2.6739 28.6362 3.36765 28.6362 4.09085C28.6362 4.46752 28.9417 4.77275 29.3181 4.77275C29.6946 4.77275 30 4.46752 30 4.09085C30 3.00608 29.569 1.96554 28.8017 1.19827C28.0345 0.431002 26.9939 0 25.9091 0H4.09086C3.00608 0 1.96554 0.431002 1.19827 1.19827C0.431001 1.96554 0 3.00608 0 4.09085V25.9091C0 26.9939 0.431001 28.0345 1.19827 28.8017C1.96554 29.569 3.00608 30 4.09086 30H25.9091C26.9939 30 28.0345 29.569 28.8017 28.8017C29.569 28.0345 30 26.9939 30 25.9091ZM30 8.1823V6.23207C30 5.85563 29.6946 5.55042 29.3181 5.55042C28.9417 5.55042 28.6362 5.85563 28.6362 6.23207V8.18206C28.6362 8.55873 28.9417 8.86395 29.3181 8.86395C29.6946 8.86395 30 8.55873 30 8.18206V8.1823ZM30 19.0914V10.8343C30 10.4579 29.6946 10.1527 29.3181 10.1527C28.9417 10.1527 28.6362 10.4579 28.6362 10.8343V19.0914C28.6362 19.4679 28.9417 19.7733 29.3181 19.7733C29.6946 19.7733 30 19.4679 30 19.0914Z" fill="#DADADA"/>
</svg>
