<svg width="30" height="17" viewBox="0 0 30 17" fill="none" xmlns="http://www.w3.org/2000/svg">
<path d="M1.42938 0.5V0.499976L1.4245 0.500024C0.844429 0.505685 0.5 1.02641 0.5 1.5044V15.5C0.5 15.9781 0.847324 16.5 1.42938 16.5H28.5706C29.1527 16.5 29.5 15.9781 29.5 15.5V1.5044C29.5 1.02642 29.1556 0.505695 28.5755 0.500024V0.5H28.5706H1.42938Z" stroke="white"/>
<path d="M3.55021 3.19897H5.3294C5.55278 3.19897 5.73386 3.42236 5.73386 3.60343V5.38262C5.73386 5.60601 5.55278 5.78708 5.3294 5.78708H3.55021C3.32683 5.78708 3.14575 5.56369 3.14575 5.38262V3.60343C3.14575 3.38005 3.32683 3.19897 3.55021 3.19897Z" fill="white"/>
<path d="M7.89762 3.19897H9.67681C9.9002 3.19897 10.0813 3.42236 10.0813 3.60343V5.38262C10.0813 5.60601 9.9002 5.78708 9.67681 5.78708H7.89762C7.67424 5.78708 7.49316 5.56369 7.49316 5.38262V3.60343C7.49316 3.38005 7.67424 3.19897 7.89762 3.19897Z" fill="white"/>
<path d="M12.248 3.19897H14.0272C14.2505 3.19897 14.4316 3.42236 14.4316 3.60343V5.38262C14.4316 5.60601 14.2505 5.78708 14.0272 5.78708H12.248C12.0246 5.78708 11.8435 5.56369 11.8435 5.38262V3.60343C11.8435 3.38005 12.0246 3.19897 12.248 3.19897Z" fill="white"/>
<path d="M16.599 3.19897H18.3782C18.6016 3.19897 18.7827 3.42236 18.7827 3.60343V5.38262C18.7827 5.60601 18.6016 5.78708 18.3782 5.78708H16.599C16.3757 5.78708 16.1946 5.56369 16.1946 5.38262V3.60343C16.1946 3.38005 16.3757 3.19897 16.599 3.19897Z" fill="white"/>
<path d="M20.9491 3.19897H27.0749C27.2983 3.19897 27.4794 3.42236 27.4794 3.60343V5.38262C27.4794 5.60601 27.2983 5.78708 27.0749 5.78708H20.9491C20.7258 5.78708 20.5447 5.56369 20.5447 5.38262V3.60343C20.5447 3.38005 20.7258 3.19897 20.9491 3.19897Z" fill="white"/>
<path d="M3.55021 7.39624H5.3294C5.55278 7.39624 5.73386 7.61963 5.73386 7.8007V9.57988C5.73386 9.80327 5.55278 9.98435 5.3294 9.98435H3.55021C3.32683 9.98435 3.14575 9.76096 3.14575 9.57988V7.8007C3.14575 7.57731 3.32683 7.39624 3.55021 7.39624Z" fill="white"/>
<path d="M7.89762 7.39624H9.67681C9.9002 7.39624 10.0813 7.61963 10.0813 7.8007V9.57988C10.0813 9.80327 9.9002 9.98435 9.67681 9.98435H7.89762C7.67424 9.98435 7.49316 9.76096 7.49316 9.57988V7.8007C7.49316 7.57731 7.67424 7.39624 7.89762 7.39624Z" fill="white"/>
<path d="M12.248 7.39624H14.0272C14.2505 7.39624 14.4316 7.61963 14.4316 7.8007V9.57988C14.4316 9.80327 14.2505 9.98435 14.0272 9.98435H12.248C12.0246 9.98435 11.8435 9.76096 11.8435 9.57988V7.8007C11.8435 7.57731 12.0246 7.39624 12.248 7.39624Z" fill="white"/>
<path d="M16.599 7.39624H18.3782C18.6016 7.39624 18.7827 7.61963 18.7827 7.8007V9.57988C18.7827 9.80327 18.6016 9.98435 18.3782 9.98435H16.599C16.3757 9.98435 16.1946 9.76096 16.1946 9.57988V7.8007C16.1946 7.57731 16.3757 7.39624 16.599 7.39624Z" fill="white"/>
<path d="M20.9491 7.39624H22.7283C22.9517 7.39624 23.1328 7.61963 23.1328 7.8007V9.57988C23.1328 9.80327 22.9517 9.98435 22.7283 9.98435H20.9491C20.7258 9.98435 20.5447 9.76096 20.5447 9.57988V7.8007C20.5447 7.57731 20.7258 7.39624 20.9491 7.39624Z" fill="white"/>
<path d="M3.55021 11.5935H14.0271C14.2504 11.5935 14.4315 11.8169 14.4315 11.998V13.7771C14.4315 14.0005 14.2504 14.1816 14.0271 14.1816H3.55021C3.32683 14.1816 3.14575 13.9582 3.14575 13.7771V11.998C3.14575 11.7746 3.32683 11.5935 3.55021 11.5935Z" fill="white"/>
<path d="M16.599 11.5935H18.3782C18.6016 11.5935 18.7827 11.8169 18.7827 11.998V13.7771C18.7827 14.0005 18.6016 14.1816 18.3782 14.1816H16.599C16.3757 14.1816 16.1946 13.9582 16.1946 13.7771V11.998C16.1946 11.7746 16.3757 11.5935 16.599 11.5935Z" fill="white"/>
<path d="M20.9491 11.5935H22.7283C22.9517 11.5935 23.1328 11.8169 23.1328 11.998V13.7771C23.1328 14.0005 22.9517 14.1816 22.7283 14.1816H20.9491C20.7258 14.1816 20.5447 13.9582 20.5447 13.7771V11.998C20.5447 11.7746 20.7258 11.5935 20.9491 11.5935Z" fill="white"/>
<path d="M25.2958 7.39624H27.075C27.2984 7.39624 27.4795 7.61963 27.4795 7.8007V13.777C27.4795 14.0004 27.2984 14.1815 27.075 14.1815H25.2958C25.0724 14.1815 24.8914 13.9581 24.8914 13.777V7.8007C24.8914 7.57731 25.0724 7.39624 25.2958 7.39624Z" fill="white"/>
</svg>
