<svg width="32" height="33" viewBox="0 0 32 33" fill="none" xmlns="http://www.w3.org/2000/svg">
<path d="M12.3788 29.9171C9.55245 32.7466 4.94542 32.7469 2.11956 29.9171C-0.70652 27.0875 -0.70652 22.4749 2.11956 19.6453L8.1545 13.603C10.8582 10.896 15.1885 10.7656 18.0366 13.2441C18.2941 13.468 18.4521 13.7851 18.4759 14.1257C18.4994 14.4664 18.3866 14.8023 18.1622 15.0594C17.938 15.3167 17.6207 15.4737 17.2805 15.4964C16.9403 15.5187 16.6051 15.4049 16.3488 15.1796C14.4928 13.5648 11.7388 13.6396 9.96497 15.4156L3.93004 21.4579C2.07555 23.3147 2.07555 26.2476 3.93004 28.1043C5.78452 29.9611 8.71386 29.9611 10.5683 28.1043L16.6033 22.062C16.8423 21.8162 17.1698 21.6764 17.5124 21.674C17.855 21.6716 18.1842 21.8069 18.4265 22.0495C18.6688 22.2921 18.804 22.6217 18.8016 22.9648C18.7992 23.3078 18.6596 23.6356 18.4137 23.875L12.3788 29.9171ZM23.8452 18.4367C21.1415 21.1435 16.8112 21.2737 13.9631 18.7956C13.7056 18.5717 13.5479 18.2546 13.524 17.9139C13.5005 17.5733 13.6133 17.2374 13.8378 16.9802C14.0619 16.723 14.3793 16.566 14.7195 16.5433C15.0597 16.5207 15.3949 16.6348 15.6512 16.8601C17.5071 18.4749 20.2612 18.4001 22.035 16.6241L28.0699 10.5818C29.9244 8.72501 29.9244 5.7921 28.0699 3.93535C26.2154 2.07859 23.2861 2.07859 21.4316 3.93535L15.3967 9.97734C15.1577 10.2235 14.8302 10.3633 14.4876 10.3657C14.1449 10.3681 13.8154 10.2328 13.5731 9.99016C13.3308 9.74756 13.196 9.41793 13.1984 9.0749C13.2007 8.73157 13.3404 8.40373 13.5862 8.16468L19.6212 2.12238C22.4472 -0.70746 27.0543 -0.70746 29.8804 2.12238C32.7065 4.95191 32.7065 9.56457 29.8804 12.3942L23.8452 18.4367Z" fill="#266342"/>
</svg>
