<svg width="26" height="21" viewBox="0 0 26 21" fill="none" xmlns="http://www.w3.org/2000/svg">
<path d="M1.43673 12.1509H18.6765C19.4698 12.1509 20.1132 11.4922 20.1132 10.6792C20.1132 9.86656 19.4702 9.20752 18.6765 9.20752H1.43673C0.643387 9.20752 0 9.8662 0 10.6792C0 11.4919 0.643028 12.1509 1.43673 12.1509Z" fill="#266342"/>
<path d="M1.44452 20.7358H24.5555C25.3531 20.7358 26 20.0771 26 19.2641C26 18.4514 25.3535 17.7924 24.5555 17.7924H1.44452C0.646876 17.7924 0 18.451 0 19.2641C0 20.0767 0.646515 20.7358 1.44452 20.7358Z" fill="#266342"/>
<path d="M24.5555 0.622681H1.44452C0.646876 0.622681 0 1.28136 0 2.09438C0 2.90703 0.646515 3.56608 1.44452 3.56608H24.5555C25.3531 3.56608 26 2.9074 26 2.09438C25.9997 1.28173 25.3532 0.622681 24.5551 0.622681H24.5555Z" fill="#266342"/>
</svg>
