<svg width="25" height="24" viewBox="0 0 25 24" fill="none" xmlns="http://www.w3.org/2000/svg">
<path d="M2.69786 22.7215C2.93769 22.9314 3.23731 23.0513 3.53717 23.0513C3.74711 23.0513 3.95682 22.9912 4.13663 22.8714L9.0825 19.9937C10.1018 20.2636 11.2109 20.3834 12.29 20.3834C19.0645 20.3834 24.58 15.7971 24.58 10.1917C24.58 4.58627 19.0645 0 12.29 0C5.51551 0 0 4.58627 0 10.1917C0 12.9495 1.37898 15.6173 3.77687 17.5357L2.3981 21.3427C2.18838 21.8221 2.30819 22.3917 2.69794 22.7215L2.69786 22.7215ZM3.50725 21.7624L5.03596 17.5358C5.12587 17.296 5.03596 16.9963 4.82603 16.8464L4.73611 16.7864C2.48794 15.0777 1.1991 12.6796 1.1991 10.1918C1.1991 5.24589 6.1751 1.19907 12.2901 1.19907C18.405 1.19907 23.3811 5.24589 23.3811 10.1918C23.3811 15.1376 18.405 19.1844 12.2901 19.1844C11.271 19.1844 10.2518 19.0646 9.29251 18.8547L9.11269 18.8248C8.96277 18.7949 8.81285 18.8248 8.66314 18.8848L3.50734 21.8824L3.47744 21.8525C3.50734 21.8221 3.50734 21.7922 3.50734 21.7623L3.50725 21.7624Z" fill="#CACACA"/>
<path d="M8.09361 10.1918C8.09361 10.854 7.55667 11.3907 6.89447 11.3907C6.23228 11.3907 5.69556 10.854 5.69556 10.1918C5.69556 9.52961 6.23228 8.99268 6.89447 8.99268C7.55667 8.99268 8.09361 9.52961 8.09361 10.1918Z" fill="#CACACA"/>
<path d="M13.4896 10.1918C13.4896 10.854 12.9529 11.3907 12.2907 11.3907C11.6285 11.3907 11.0918 10.854 11.0918 10.1918C11.0918 9.52961 11.6285 8.99268 12.2907 8.99268C12.9529 8.99268 13.4896 9.52961 13.4896 10.1918Z" fill="#CACACA"/>
<path d="M18.8841 10.1918C18.8841 10.854 18.3474 11.3907 17.6852 11.3907C17.023 11.3907 16.4861 10.854 16.4861 10.1918C16.4861 9.52961 17.023 8.99268 17.6852 8.99268C18.3474 8.99268 18.8841 9.52961 18.8841 10.1918Z" fill="#CACACA"/>
</svg>
