<svg width="30" height="39" viewBox="0 0 30 39" fill="none" xmlns="http://www.w3.org/2000/svg">
<path d="M1 28.0166C1 24.6969 3.6969 22 7.01657 22C7.01658 22 7.01658 22 7.01659 22L22.8034 22.0003C26.1232 22.0003 28.82 24.6972 28.82 28.0169V37.5415H1V28.0166Z" fill="white" stroke="#266342" stroke-width="2"/>
<path d="M14.9107 0C10.0773 0 6.14014 3.93712 6.14014 8.77055C6.14014 13.604 10.0773 17.5411 14.9107 17.5411C19.7441 17.5411 23.6812 13.604 23.6812 8.77055C23.6812 3.93712 19.7441 0 14.9107 0ZM14.9107 1.75395C18.7961 1.75395 21.9273 4.88504 21.9273 8.77055C21.9273 12.656 18.7965 15.7871 14.9107 15.7871C11.0253 15.7871 7.89409 12.6561 7.89409 8.77055C7.89409 4.88512 11.0249 1.75395 14.9107 1.75395Z" fill="#266342"/>
</svg>
