<svg width="30" height="30" viewBox="0 0 30 30" fill="none" xmlns="http://www.w3.org/2000/svg">
<path fill-rule="evenodd" clip-rule="evenodd" d="M15.0001 10.1717C13.7196 10.1719 12.4916 10.6807 11.5862 11.5861C10.6808 12.4917 10.1722 13.7198 10.1722 15.0003C10.1722 16.2809 10.681 17.5089 11.5864 18.4143C12.492 19.3199 13.72 19.8285 15.0006 19.8285C16.2812 19.8285 17.5091 19.3197 18.4148 18.4143C19.3201 17.5087 19.8288 16.2807 19.8288 15.0001C19.8275 13.72 19.3182 12.4926 18.4131 11.5872C17.5079 10.682 16.2803 10.173 15.0002 10.1718L15.0001 10.1717ZM15.0001 21.7026V21.7028C13.2222 21.703 11.517 20.997 10.2597 19.7398C9.0023 18.4828 8.29583 16.7777 8.29583 14.9998C8.29562 13.2219 9.00186 11.5167 10.2591 10.2594C11.5161 9.00222 13.2213 8.29598 14.9992 8.29598C16.7772 8.29598 18.4822 9.00245 19.7394 10.2597C20.9964 11.5169 21.7027 13.2222 21.7024 15.0001C21.7005 16.7771 20.9936 18.4806 19.7373 19.7372C18.4807 20.9937 16.7772 21.7007 15.0001 21.7028V21.7026ZM28.1259 13.6725V16.7191L24.7666 17.2843C24.5914 17.3133 24.4282 17.3918 24.2958 17.5105C24.1637 17.629 24.0681 17.783 24.0203 17.954C23.8424 18.5804 23.601 19.1872 23.2998 19.7646C23.2198 19.9179 23.1837 20.0902 23.1954 20.2628C23.207 20.4353 23.2663 20.6014 23.3666 20.7424L25.2187 23.3425L23.0654 25.4971L20.5588 23.7133H20.5586C20.4128 23.6093 20.2403 23.5494 20.0614 23.5405C19.8826 23.5317 19.7049 23.5743 19.5496 23.6634C18.8929 24.0388 18.1936 24.3346 17.4666 24.5439C17.297 24.593 17.1448 24.689 17.0274 24.8209C16.91 24.9528 16.8323 25.1152 16.8034 25.2892L16.3266 28.125H13.2808L12.8025 25.2892C12.7737 25.1152 12.6959 24.9528 12.5787 24.8209C12.4613 24.689 12.3088 24.593 12.1393 24.5439C11.3615 24.3192 10.6155 23.9959 9.91958 23.5823C9.76346 23.4893 9.58354 23.4439 9.40212 23.4514C9.22048 23.459 9.04511 23.5191 8.8972 23.6246L6.65828 25.219L4.50262 23.065L6.20485 20.6756C6.30432 20.5355 6.36335 20.3709 6.37546 20.1994C6.38778 20.0282 6.35275 19.8567 6.27426 19.704C5.91876 19.011 5.65 18.2769 5.47418 17.5181C5.43245 17.3378 5.33839 17.1736 5.20367 17.0469C5.06874 16.92 4.89942 16.8359 4.71692 16.8049L1.87405 16.3266V13.2803L5.04972 12.747C5.21428 12.7193 5.36846 12.6482 5.49625 12.541C5.62405 12.4335 5.72093 12.294 5.77672 12.1366C6.00701 11.4939 6.30434 10.8772 6.66393 10.2966C6.76188 10.1399 6.81097 9.95734 6.80513 9.77246C6.79908 9.58758 6.73832 9.40874 6.63063 9.25845L4.78159 6.65838L6.93487 4.504L9.83331 6.56671C9.96825 6.66273 10.1263 6.72133 10.2913 6.73668C10.4565 6.75181 10.6226 6.72305 10.7729 6.65343C11.2975 6.40929 11.8435 6.2136 12.4035 6.06874C12.5787 6.02312 12.7367 5.92797 12.8589 5.79434C12.9809 5.66092 13.0618 5.49484 13.0916 5.31645L13.6733 1.87479H16.719L17.3409 5.56661C17.3684 5.73246 17.4402 5.88773 17.5487 6.01617C17.6573 6.14462 17.7983 6.24127 17.9572 6.29598C18.4546 6.47114 18.937 6.68608 19.3999 6.93863C19.5541 7.02339 19.7288 7.06296 19.9044 7.05258C20.08 7.0422 20.2491 6.98252 20.3922 6.88024L23.3413 4.78032L25.4972 6.93344L23.3605 9.9333C23.2604 10.0745 23.2011 10.2406 23.1894 10.4131C23.1778 10.5857 23.2139 10.7583 23.2939 10.9116C23.5516 11.4055 23.7662 11.9206 23.9353 12.4514C23.9869 12.6159 24.0832 12.7632 24.2136 12.8763C24.3437 12.9896 24.5029 13.0644 24.6731 13.0927L28.1253 13.6731L28.1259 13.6725ZM29.2177 18.4366L25.6467 19.0367C25.5224 19.3998 25.3801 19.7581 25.2183 20.1078L27.2054 22.9C27.3338 23.0806 27.3944 23.3007 27.376 23.5215C27.3578 23.7425 27.2618 23.9497 27.1052 24.1066L23.8308 27.3833C23.6736 27.5398 23.4662 27.6356 23.2452 27.654C23.0242 27.6722 22.8036 27.6119 22.6231 27.4832L19.9447 25.5762C19.4958 25.803 19.0322 25.9992 18.5569 26.1637L18.0429 29.217C18.0073 29.4358 17.8948 29.6348 17.7257 29.7784C17.5566 29.9217 17.3419 30.0004 17.1201 30H12.4867C12.2649 29.9998 12.0501 29.9211 11.8808 29.7779C11.7113 29.6348 11.598 29.4363 11.5608 29.2177L11.0468 26.1644C10.5162 25.9791 9.99956 25.7555 9.50135 25.4953L7.09807 27.2062C6.91794 27.3349 6.69781 27.3956 6.47702 27.3772C6.25645 27.3589 6.0493 27.2628 5.89272 27.1063L2.6178 23.8296C2.46016 23.6735 2.36328 23.4664 2.34447 23.2454C2.32566 23.0241 2.3862 22.8038 2.5153 22.6233L4.35592 20.0386H4.35614C4.13925 19.557 3.95653 19.061 3.80862 18.5541L0.782358 18.0451C0.563526 18.0083 0.3648 17.8952 0.221646 17.7259C0.0782822 17.5566 -0.000214111 17.3419 1.7823e-06 17.12V12.4867C-0.000430668 12.2651 0.0778451 12.0503 0.221214 11.881C0.364578 11.7119 0.56352 11.5993 0.782369 11.5634L4.21235 10.986C4.37107 10.5983 4.55206 10.2199 4.75403 9.85268L2.7945 7.09994C2.66498 6.91981 2.604 6.69946 2.62237 6.47844C2.64075 6.25744 2.7372 6.05007 2.8944 5.89376L6.16978 2.61773C6.32676 2.46117 6.53435 2.36516 6.75534 2.34678C6.97634 2.32862 7.19669 2.38916 7.37745 2.5176L10.4893 4.73339C10.7709 4.61878 11.0557 4.51585 11.3433 4.42481L11.9539 0.78248L11.9541 0.782265C11.9911 0.563433 12.1044 0.364922 12.274 0.221773C12.4435 0.0786247 12.6582 -8.7738e-05 12.8801 -8.7738e-05H17.5134C17.7353 -8.7738e-05 17.95 0.0786247 18.1195 0.221773C18.289 0.364922 18.4024 0.563433 18.4393 0.782265L19.1027 4.72602C19.3267 4.8177 19.5503 4.91674 19.7713 5.0227L22.9047 2.79369C23.0848 2.66459 23.3049 2.60383 23.5257 2.62199C23.7463 2.64037 23.9534 2.7366 24.1098 2.89359L27.3851 6.16918C27.5419 6.32595 27.6384 6.53311 27.657 6.75408C27.6758 6.97486 27.6157 7.19543 27.4874 7.37618L25.2128 10.5666C25.3287 10.8189 25.4368 11.0756 25.5335 11.3355L29.2178 11.9555C29.4362 11.9927 29.6345 12.1056 29.7776 12.2747C29.9208 12.4438 29.9995 12.6581 30.0001 12.8795V17.5128C29.9997 17.7345 29.921 17.9488 29.7778 18.1179C29.6347 18.287 29.4362 18.3999 29.2178 18.4366L29.2177 18.4366Z" fill="#DADADA"/>
</svg>
