<svg width="22" height="20" viewBox="0 0 22 20" fill="none" xmlns="http://www.w3.org/2000/svg">
<path d="M2.37885 0C1.21677 0 0.264648 0.952125 0.264648 2.1142V17.1776C0.264648 18.1933 1.0988 19.0274 2.11449 19.0274H20.0848C21.1005 19.0274 21.9346 18.1933 21.9346 17.1776V5.02117C21.9346 4.00548 21.1005 3.17133 20.0848 3.17133H18.7635V0.528633C18.7635 0.251938 18.5117 0.000141495 18.235 0.000141495L2.37885 0ZM2.37885 1.05698H17.7065V3.17119H2.37885C1.78415 3.17119 1.32187 2.70886 1.32187 2.1142C1.32187 1.51954 1.78419 1.05722 2.37885 1.05722V1.05698ZM1.32187 3.93912C1.6334 4.12052 1.99453 4.22817 2.37885 4.22817C8.33152 4.22282 14.9689 4.22817 20.0849 4.22817C20.5332 4.22817 20.8778 4.5727 20.8778 5.02103V7.66372H13.2139C12.4912 7.66372 11.8926 8.26229 11.8926 8.98507V13.2135C11.8926 13.9362 12.4912 14.5348 13.2139 14.5348H20.8778V17.1775C20.8778 17.6258 20.5332 17.9704 20.0849 17.9704H2.11458C1.66627 17.9704 1.32173 17.6258 1.32173 17.1775L1.32187 3.93912ZM13.214 8.72051H20.8778V13.4774H13.214C13.0584 13.4774 12.9496 13.3686 12.9496 13.213V8.98461C12.9496 8.82903 13.0584 8.72027 13.214 8.72027V8.72051ZM15.8567 10.0419C15.2729 10.0419 14.7997 10.515 14.7997 11.0988C14.7997 11.6826 15.2729 12.1558 15.8567 12.1558C16.4405 12.1558 16.9137 11.6826 16.9137 11.0988C16.9137 10.515 16.4405 10.0419 15.8567 10.0419Z" fill="#CACACA"/>
</svg>
