<svg width="119" height="131" viewBox="0 0 119 131" fill="none" xmlns="http://www.w3.org/2000/svg">
<path d="M13.5026 98.4566L11.9251 97.5377C11.4888 98.2508 10.9581 98.8908 10.4428 99.3735C10.0123 99.776 9.35262 99.7661 8.93368 99.3517L8.88359 99.3013C8.42227 98.8443 8.43287 98.0777 8.91249 97.6416C9.40174 97.1965 9.87558 96.6396 10.2444 95.972C10.7809 94.9997 10.7828 94.1214 10.1192 93.7346C9.48842 93.3667 8.78825 93.6812 7.67587 94.701C6.07039 96.1777 4.55255 96.9393 2.94226 96.0006C1.48124 95.15 0.918793 93.425 1.57755 91.3974L0 90.4785L0.922646 88.8069L2.38366 89.6585C2.75349 89.0542 3.11561 88.5913 3.46137 88.2293C3.88417 87.7872 4.57663 87.7812 5.01099 88.2115C5.45979 88.6566 5.46268 89.3954 5.01388 89.8405C4.67776 90.1748 4.31178 90.616 3.97951 91.2183C3.36698 92.3271 3.63472 92.9552 4.0999 93.2262C4.6479 93.5457 5.32592 93.152 6.65788 92.0116C8.4762 90.3885 9.84091 90.1017 11.3356 90.9721C12.814 91.8326 13.4824 93.6426 12.7312 95.7969L14.4252 96.783L13.5026 98.4546V98.4566Z" fill="#C7F4DE"/>
<path d="M89.386 124.464C93.3636 118.966 96.5592 118.917 96.5592 118.917C96.5592 118.917 98.0096 109.257 96.8519 105.148C95.6953 101.038 90.4637 104.642 90.4637 104.642C90.4637 104.642 97.3999 90.6793 94.555 89.1116C89.256 86.1898 80.9098 101.001 80.9098 101.001C80.9098 101.001 82.8649 94.4814 79.1175 94.5061C73.4661 94.5427 72.9778 109.49 72.9778 109.49C72.9778 109.49 71.8635 106.545 68.3771 108.232C64.6219 110.049 63.604 120.992 63.3911 129.449H83.1875C86.02 127.668 88.3334 125.921 89.387 124.465L89.386 124.464Z" fill="#466EB6"/>
<path d="M81.6012 99.8087C81.6012 99.8087 81.8333 92.3805 78.0869 92.4043C72.4354 92.4409 72.9767 109.488 72.9767 109.488C72.9767 109.488 70.6161 104.665 67.1297 106.352C63.3034 108.203 62.8488 120.299 62.999 129.447H69.575L94.5548 89.1096C89.2559 86.1878 81.6022 99.8077 81.6022 99.8077L81.6012 99.8087Z" fill="#355389"/>
<path d="M80.1296 129.05C80.1296 129.05 98.1694 131.184 102.539 129.611C106.909 128.04 104.015 125.526 104.015 125.526C104.015 125.526 113.257 124.314 114.148 121.489C115.04 118.664 110.667 118.646 110.667 118.646C110.667 118.646 119.943 113.39 118.902 111.352C116.962 107.555 106.553 112.735 106.553 112.735C106.553 112.735 110.146 109.768 107.983 108.285C104.72 106.049 98.7781 114.446 98.7781 114.446C98.7781 114.446 99.2529 112.308 96.6092 111.886C91.8659 111.127 80.1296 129.05 80.1296 129.05Z" fill="#266342"/>
<path d="M96.6043 110.308C99.248 110.731 98.778 114.447 98.778 114.447C98.778 114.447 104.925 104.431 108.187 106.667C110.35 108.151 107.403 112.328 107.403 112.328C107.403 112.328 116.962 107.555 118.902 111.353L81.8564 127.864C83.2163 125.764 92.1741 109.6 96.6043 110.308Z" fill="#7CB79A"/>
<path d="M80.0179 129.32C80.0179 129.32 96.4339 117.591 98.7954 112.434C101.157 107.276 96.6342 107.707 96.6342 107.707C96.6342 107.707 103.386 98.5743 101.784 95.4191C100.181 92.2638 96.4936 96.0877 96.4936 96.0877C96.4936 96.0877 99.9087 83.5281 97.3382 82.7309C92.5488 81.2453 87.8633 97.15 87.8633 97.15C87.8633 97.15 86.0739 88.3509 83.0228 89.0047C78.4202 89.9909 83.0122 103 83.0122 103C83.0122 103 81.6542 98.7622 79.0818 100.728C74.4666 104.255 80.0179 129.321 80.0179 129.321V129.32Z" fill="#266342"/>
<path d="M74.5919 100.93C77.4898 99.5218 78.0725 96.5595 78.0725 96.5595C78.0725 96.5595 78.0918 89.2036 82.6944 88.2174C85.7465 87.5636 87.8826 93.4735 87.8826 93.4735C87.8826 93.4735 92.5488 81.2453 97.3383 82.7309L79.9679 129.125C79.3621 126.167 71.1392 102.608 74.5909 100.931L74.5919 100.93Z" fill="#266342"/>
<path d="M107.199 129.271H74.0966C73.041 129.271 72.1848 128.393 72.1848 127.308C72.1848 126.224 73.041 125.344 74.0966 125.344H107.199C108.255 125.344 109.111 126.224 109.111 127.308C109.111 128.392 108.255 129.271 107.199 129.271Z" fill="#999999"/>
<path d="M112.988 125.461H79.8859C78.8303 125.461 77.9741 124.582 77.9741 123.498C77.9741 122.414 78.8303 121.534 79.8859 121.534H112.988C114.044 121.534 114.9 122.414 114.9 123.498C114.9 124.582 114.044 125.461 112.988 125.461Z" fill="#7CB79A"/>
<path d="M108.357 121.853H75.2543C74.1987 121.853 73.3425 120.973 73.3425 119.889C73.3425 118.805 74.1987 117.926 75.2543 117.926H108.357C109.412 117.926 110.269 118.805 110.269 119.889C110.269 120.973 109.412 121.853 108.357 121.853Z" fill="#999999"/>
<path d="M104.497 117.943H71.3942C70.3386 117.943 69.4824 117.064 69.4824 115.979C69.4824 114.895 70.3386 114.016 71.3942 114.016H104.497C105.552 114.016 106.408 114.895 106.408 115.979C106.408 117.064 105.552 117.943 104.497 117.943Z" fill="#7CB79A"/>
<path d="M51.7056 128.58C51.7056 128.58 25.9861 115.557 21.5626 108.764C17.1391 101.971 23.641 101.586 23.641 101.586C23.641 101.586 12.1638 90.1223 13.7779 85.2955C15.393 80.4697 21.4181 85.0809 21.4181 85.0809C21.4181 85.0809 13.958 68.0239 17.4377 66.3276C23.9193 63.1684 33.0119 81.3213 33.0119 81.3213C33.0119 81.3213 31.0578 73.4353 35.5207 73.6914C42.2518 74.0782 41.9735 91.9166 41.9735 91.9166C41.9735 91.9166 42.7334 85.0769 46.7909 87.2985C54.07 91.2845 51.7046 128.579 51.7046 128.579L51.7056 128.58Z" fill="#266342"/>
<path d="M48.2566 84.5399C45.089 82.7348 41.9339 88.0116 41.9339 88.0116C41.9339 88.0116 42.2536 74.0791 35.5225 73.6924C31.0596 73.4362 33.0137 81.3223 33.0137 81.3223C33.0137 81.3223 23.9211 63.1694 17.4395 66.3286L51.7353 128.291C51.978 123.963 54.5321 88.1174 48.2566 84.5408V84.5399Z" fill="#7CB79A"/>
<path d="M51.0401 128.742C51.0401 128.742 30.0051 131.425 24.5588 129.034C19.1125 126.643 23.0159 123.689 23.0159 123.689C23.0159 123.689 11.321 121.328 10.4186 117.645C9.5162 113.961 15.0993 114.323 15.0993 114.323C15.0993 114.323 3.69718 106.797 5.19672 104.286C7.9897 99.6108 20.8432 107.139 20.8432 107.139C20.8432 107.139 16.5044 103.035 19.3899 101.333C23.7411 98.7651 30.6253 110.007 30.6253 110.007C30.6253 110.007 30.1977 107.236 33.6071 106.929C39.7247 106.378 51.0401 128.741 51.0401 128.741V128.742Z" fill="#7CB79A"/>
<path d="M33.7449 104.916C30.3355 105.224 30.6254 110.008 30.6254 110.008C30.6254 110.008 23.616 96.6811 19.2647 99.2498C16.3793 100.952 19.7935 106.544 19.7935 106.544C19.7935 106.544 7.98975 99.6118 5.19678 104.286L51.1047 128.622C49.5435 125.822 39.4599 104.401 33.7458 104.916H33.7449Z" fill="#266342"/>
<path d="M110.462 24.2217L109.713 26.1415L106.571 25.2444L105.138 27.912L102.68 27.6351L102.544 28.912L105.831 29.2839L107.189 26.7548L110.456 27.6895L111.585 24.8003L110.462 24.2217Z" fill="#266342"/>
<path d="M79.2128 129.248H40.3316C38.783 129.248 37.5271 127.958 37.5271 126.368C37.5271 124.777 38.783 123.488 40.3316 123.488H79.2128C80.7614 123.488 82.0173 124.777 82.0173 126.368C82.0173 127.958 80.7614 129.248 79.2128 129.248Z" fill="#FAE0B2"/>
<path d="M85.0566 123.546H48.4542C46.9055 123.546 45.6497 122.256 45.6497 120.666C45.6497 119.075 46.9055 117.786 48.4542 117.786H85.0576C86.6063 117.786 87.8621 119.075 87.8621 120.666C87.8621 122.256 86.6063 123.546 85.0576 123.546H85.0566Z" fill="#F7CC7F"/>
<path d="M79.8424 112.019H44.8291C43.3153 112.019 42.0881 113.279 42.0881 114.834V114.968C42.0881 116.522 43.3153 117.783 44.8291 117.783H79.8424C81.3562 117.783 82.5834 116.522 82.5834 114.968V114.834C82.5834 113.279 81.3562 112.019 79.8424 112.019Z" fill="#FAE0B2"/>
<path d="M44.6298 106.274H79.8078C81.2949 106.274 82.5016 107.514 82.5016 109.041V109.269C82.5016 110.797 81.2949 112.036 79.8078 112.036H44.6298C43.1428 112.036 41.936 110.797 41.936 109.269V109.041C41.936 107.514 43.1428 106.274 44.6298 106.274Z" fill="#F7CC7F"/>
<path d="M80.9666 106.613H45.4669C43.9182 106.613 42.6624 105.323 42.6624 103.732C42.6624 102.142 43.9182 100.852 45.4669 100.852H80.9666C82.5152 100.852 83.7711 102.142 83.7711 103.732C83.7711 105.323 82.5152 106.613 80.9666 106.613Z" fill="#FAE0B2"/>
<path d="M79.4341 100.924H43.9344C42.3858 100.924 41.1299 99.6345 41.1299 98.0441C41.1299 96.4536 42.3858 95.1638 43.9344 95.1638H79.4341C80.9828 95.1638 82.2387 96.4536 82.2387 98.0441C82.2387 99.6345 80.9828 100.924 79.4341 100.924Z" fill="#F7CC7F"/>
<path d="M47.2091 84.0345H81.2131C82.731 84.0345 83.9628 85.2996 83.9628 86.8584V86.9722C83.9628 88.531 82.731 89.796 81.2131 89.796H47.2091C45.6913 89.796 44.4595 88.531 44.4595 86.9722V86.8584C44.4595 85.2996 45.6913 84.0345 47.2091 84.0345Z" fill="#F7CC7F"/>
<path d="M51.5922 89.5735H84.2594C85.7493 89.5735 86.958 90.8158 86.958 92.3449V92.5625C86.958 94.0927 85.7483 95.334 84.2594 95.334H51.5922C50.1022 95.334 48.8936 94.0917 48.8936 92.5625V92.3449C48.8936 90.8148 50.1032 89.5735 51.5922 89.5735Z" fill="#FAE0B2"/>
<path d="M98.1712 47.8711L100.021 46.9097L101.842 47.9295C102.049 48.0452 102.296 47.8672 102.26 47.6278L101.941 45.523L103.448 44.0601C103.619 43.894 103.531 43.5972 103.298 43.5587L101.25 43.2204L100.361 41.2966C100.26 41.077 99.9578 41.073 99.8499 41.2887L98.9032 43.1838L96.847 43.4578C96.6129 43.4884 96.5147 43.7822 96.6813 43.9543L98.1443 45.4646L97.7619 47.5576C97.7186 47.796 97.9603 47.9819 98.1712 47.8731V47.8711Z" fill="#C7F4DE"/>
<path d="M61.0371 9.25067L59.1244 9.44948L58.4724 6.32492L55.6419 6.2626L54.7818 4.00647L53.6694 4.45354L54.8203 7.47128L57.5026 7.53063L58.1806 10.7808L61.0583 10.4811L61.0371 9.25067Z" fill="#50BFA5"/>
<path d="M100.327 56.0688L102.372 56.7621C102.372 56.7621 105.616 55.683 105.935 55.0035C106.254 54.325 106.344 52.6771 106.806 52.6326C107.268 52.5881 108.159 52.7414 108.372 53.869C108.526 54.687 107.359 57.0529 107.542 57.3042C107.656 57.4614 108.821 57.8946 109.676 58.1963C110.239 58.3951 110.645 58.9035 110.732 59.5168V59.5187C110.791 59.9332 110.561 60.3377 110.184 60.4871L109.595 60.7205L109.783 61.3446C109.923 61.8095 109.675 62.309 109.229 62.4623L108.773 62.6196L108.918 62.9994C109.106 63.489 108.841 64.0449 108.352 64.1903L107.954 64.3089L107.971 64.4178C108.039 64.8717 107.762 65.3089 107.333 65.4247L106.938 65.5315L101.49 63.6848C100.98 63.5117 100.51 63.2318 100.109 62.8609L98.2993 61.8797C98.1047 61.7739 98.0152 61.5355 98.0884 61.3189L99.7661 56.3576C99.847 56.1182 100.097 55.9887 100.328 56.0658L100.327 56.0688Z" fill="#C7F4DE"/>
<path d="M34.738 49.2974C34.712 49.2202 34.0706 48.0947 33.2433 46.8721C29.3957 41.1799 23.6913 35.6933 17.0007 35.9001L16.9958 35.8585C20.0209 35.5173 22.9844 36.3451 25.5857 37.8199C29.8773 40.1957 34.06 44.7238 36.3473 48.2044L34.737 49.2974H34.738Z" fill="#C7F4DE"/>
<path d="M78.7341 42.1946C78.7341 42.1946 78.9305 41.7871 78.919 40.8465C78.9045 39.6833 78.6772 37.9267 78.632 37.7714C78.5501 37.4905 82.2147 36.3105 82.2147 36.3105C82.2147 36.3105 88.0944 36.0019 88.9698 35.3273C89.8453 34.6537 90.5811 34.3758 90.1737 35.0741C89.435 36.3382 87.712 38.1918 87.3297 38.445C86.9464 38.6982 82.3794 39.8772 82.2975 39.8772C82.2156 39.8772 82.2426 42.8267 82.2426 42.8267L78.735 42.1946H78.7341Z" fill="#F7A491"/>
<path d="M82.5489 40.9385C82.5489 40.9385 78.7418 40.2738 78.6724 40.6645C77.1344 49.3152 76.8734 52.1747 76.7029 52.2647C76.1231 52.5703 67.8366 45.1016 66.4671 44.613C65.8122 44.3796 65.0995 44.4182 64.4157 44.4389C62.7871 44.4884 63.3361 44.4478 62.477 44.4914V44.4933C62.4318 44.4963 62.4048 44.4983 62.4048 44.4983L62.4135 46.0719C64.2491 47.7682 68.4501 73.4552 68.8046 73.4373C69.1994 73.4186 77.5042 75.5649 77.3578 74.8458C77.3337 74.7291 71.7276 70.017 70.1375 63.218C69.6039 60.9351 69.34 58.4772 69.0511 56.3259C70.8964 57.2765 78.1023 60.9183 79.2445 60.4376C82.7974 58.9401 82.547 40.9385 82.547 40.9385H82.5489Z" fill="#266342"/>
<path d="M96.8508 86.5469C96.8508 86.5469 104.577 92.7624 104.835 93.8642C105.207 95.4517 112.282 93.3647 110.575 93.0423C110.182 92.9681 108.926 92.6407 108.823 92.5843C108.27 92.2807 101.396 83.7725 101.396 83.7725L96.8508 86.5469Z" fill="#F7A491"/>
<path d="M113.893 93.0423L108.96 92.6299C108.96 92.6299 107.55 93.8287 104.84 93.885C104.84 93.885 104.406 95.156 104.612 96.6427C104.648 96.8988 104.69 97.6743 104.942 97.6565C105.853 97.5932 108.282 96.972 111.048 96.4043C111.048 96.4043 114.766 95.5952 116.914 94.2757C119.062 92.9563 113.893 93.0433 113.893 93.0433V93.0423Z" fill="#184655"/>
<path d="M62.2314 70.9547C62.2314 70.9547 67.8896 71.931 74.1468 70.4276C81.3873 68.6877 89.3936 67.0795 91.7397 68.48C93.6283 69.6076 105.419 87.9059 105.419 87.9059L100.866 91.3183L87.8825 76.3869C87.8825 76.3869 71.3182 82.6637 67.5977 81.9684C59.1244 80.3838 59.004 73.4344 62.2314 70.9538V70.9547Z" fill="#333333"/>
<path d="M79.9215 98.8235C79.9215 98.8235 79.5776 108.421 79.3638 110.046C79.151 111.664 83.3299 116.537 82.7953 114.842C82.6721 114.452 82.3562 113.161 82.3552 113.041C82.3523 112.398 83.9048 101.45 83.9048 101.45L79.9205 98.8235H79.9215Z" fill="#F7A491"/>
<path d="M84.3721 117.84L82.3814 113.186C82.3814 113.186 80.6844 112.482 79.3486 110.06C79.3486 110.06 78.0532 110.272 76.8783 111.165C76.6751 111.319 75.293 112.356 75.3893 112.596C75.7437 113.477 77.6256 115.365 79.6828 117.426C79.6828 117.426 82.5991 119.843 84.7506 121.156C86.9012 122.47 84.3712 117.841 84.3712 117.841L84.3721 117.84Z" fill="#184655"/>
<path d="M89.0921 79.9021C87.1129 77.193 71.1458 74.6193 71.1458 74.6193L66.6934 65.8302L56.8477 72.0655C56.8477 72.0655 57.8319 80.1108 58.5706 82.2611C59.5549 85.1255 66.1714 85.2719 70.2125 85.2294C73.931 85.1898 80.7228 85.9683 80.7228 85.9683L78.4258 106.781C78.4258 106.781 82.9408 107.836 84.2102 107.666C84.3537 107.646 91.5538 83.273 89.0921 79.9021Z" fill="#333333"/>
<path d="M62.4616 44.5122L56.9065 44.8248C56.9065 44.8248 56.7794 44.8703 56.7408 44.8782C56.2882 44.9642 56.6994 61.589 57.103 67.7976C57.5065 74.0071 58.3251 76.6154 58.3251 76.6154C58.3251 76.6154 65.8585 75.2415 68.1709 74.3197C69.1301 73.9369 71.4531 70.9558 71.4531 70.9558C71.4531 70.9558 69.081 67.6799 67.8858 62.3595C66.9641 58.2557 65.8277 50.9809 65.1766 49.4626C63.6828 45.9751 62.4626 44.5122 62.4626 44.5122H62.4616Z" fill="white"/>
<path d="M57.0654 39.7941L56.9075 44.8306C56.9075 44.8306 60.5027 51.1935 62.349 50.3072C63.8976 49.5634 62.5233 44.7228 62.5233 44.7228C62.5233 44.7228 62.2555 43.613 61.8828 42.3381C61.6228 41.4469 61.4071 40.4825 61.4225 39.7743C61.461 38.0533 57.0645 39.7941 57.0645 39.7941H57.0654Z" fill="#F7A491"/>
<path d="M61.3608 28.3057C61.3608 28.3057 63.1935 31.1424 63.3303 33.5301C63.4671 35.9178 62.9749 37.5468 62.9749 37.5468L57.0952 30.3284L61.3617 28.3057H61.3608Z" fill="#184655"/>
<path d="M63.9389 33.0415C64.0218 33.8773 63.7059 34.5954 63.232 34.6448C62.7582 34.6943 62.3084 34.0573 62.2256 33.2205C62.1428 32.3847 62.4587 31.6667 62.9325 31.6172C63.4054 31.5677 63.8561 32.2047 63.9389 33.0415Z" fill="#F48C7F"/>
<path d="M55.192 31.4846C55.0572 31.4549 55.0707 38.4043 57.0315 40.0393C58.9924 41.6743 62.4066 41.8187 63.4034 40.1708C64.5061 38.3489 63.4573 31.0266 60.5401 29.4708C57.6229 27.9159 55.192 31.4836 55.192 31.4836V31.4846Z" fill="#F7A491"/>
<path d="M54.6942 27.1751C53.1966 28.5233 52.4723 29.5084 51.4592 31.905C50.2139 34.8525 52.6852 37.9059 54.7568 39.1195C56.8294 40.3331 57.0047 41.8227 57.0047 41.8227L57.0865 40.8959C57.1751 40.1759 56.9632 39.7654 56.7649 39.3302C56.5886 38.9424 56.0223 37.6161 55.8008 37.2659C55.2181 36.3421 55.1026 36.1423 55.3905 35.265C55.612 34.5894 55.3558 33.0998 55.6977 31.9861L58.4869 31.3679C58.4869 31.3679 60.232 30.9367 61.1142 29.8922C63.6452 26.8932 58.641 23.5491 54.6923 27.1751H54.6942Z" fill="#184655"/>
<path d="M56.0559 36.0245C56.3998 36.7871 56.3285 37.5715 55.897 37.7772C55.4656 37.982 54.8367 37.5309 54.4938 36.7683C54.15 36.0057 54.2212 35.2214 54.6527 35.0156C55.0842 34.8109 55.7131 35.2619 56.0559 36.0245Z" fill="#F7A491"/>
<path d="M18.4856 38.5152L18.033 35.3135L20.3444 33.1157C20.6073 32.8655 20.4773 32.4135 20.1239 32.3512L17.0198 31.8042L15.6984 28.8676C15.5482 28.5332 15.0898 28.5214 14.9222 28.8468L13.4563 31.7102L10.3282 32.093C9.97187 32.1365 9.81874 32.5806 10.0691 32.8447L12.2679 35.1612L11.6554 38.3342C11.586 38.6952 11.9501 38.9821 12.2717 38.8189L15.0965 37.3877L17.8461 38.9663C18.1591 39.1463 18.5376 38.8792 18.4856 38.5142V38.5152Z" fill="#C7F4DE"/>
<path d="M37.0473 16.8549C37.3642 18.1922 37.9363 20.3069 37.9363 20.3069C37.891 20.8875 37.7234 23.3068 37.525 26.2712L41.7675 24.5274C41.7675 24.5274 41.7164 19.6966 41.9062 19.4009C42.066 19.1506 42.3347 19.4632 43.6359 17.5513C44.0115 16.9993 44.0818 16.0142 44.0818 16.0142C44.0818 16.0142 44.1588 14.8006 43.894 14.6878C43.6291 14.5751 43.3248 14.7561 43.2285 14.9658C43.1322 15.1754 43.1572 15.6641 43.0609 15.8737C42.9646 16.0834 42.3511 16.3357 42.093 16.3228C41.8349 16.3099 42.1257 12.7343 42.1257 12.7343C42.1257 12.7343 42.2702 11.7205 42.3434 11.3882C42.406 11.1053 42.6564 10.2754 42.6564 10.2754C42.6564 10.2754 42.9511 9.07171 42.5871 8.97973C42.3723 8.92533 41.8262 9.90355 41.4516 10.9411C41.048 12.0588 40.8198 13.2437 40.7042 13.2279C40.4336 13.1903 40.5771 11.2299 40.5771 11.2299C40.5771 11.2299 40.8468 10.3318 40.84 9.90849C41.0952 9.38921 41.2638 8.42583 40.815 8.34571C40.7321 8.33088 40.1408 9.55439 40.1408 9.55439C40.1408 9.55439 39.9087 10.4159 39.7729 10.8185C39.5341 11.5286 39.4975 12.6503 39.3732 13.1448C39.2692 13.5563 39.1758 13.3872 39.1334 13.404C39.1007 13.4168 39.1584 12.8501 39.2239 12.0697C39.2576 11.677 39.2133 11.224 39.3202 10.7759C39.4194 10.3615 39.4763 9.76903 39.5023 9.41097C39.5745 8.39715 38.9533 8.501 38.7385 9.42779C38.6567 9.7809 38.571 10.1666 38.4843 10.5573C38.1501 12.0776 38.1597 13.5424 37.9998 13.5543C37.7928 13.5701 37.9295 10.9035 37.9295 10.9035C37.9295 10.9035 37.6117 9.42779 37.2958 10.7977C36.9298 12.3872 36.9674 13.6829 36.9722 13.7403C37.0059 14.128 36.7324 15.5157 37.0493 16.8539L37.0473 16.8549Z" fill="#F8A492"/>
<path d="M56.8996 44.8336C56.8996 44.8336 51.4003 44.5675 49.9788 43.9078C49.1178 43.5072 42.0409 37.6518 42.0409 37.6518L42.1199 21.9726L37.1436 21.5839C37.1436 21.5839 34.5635 38.9139 35.4572 40.811C36.3799 42.7704 46.738 50.8345 48.8096 54.3339C50.0029 56.3497 52.4915 83.7695 52.8681 84.0168C55.5484 85.449 63.8242 86.8802 63.6297 86.0108C58.2421 61.9965 56.8986 44.8336 56.8986 44.8336H56.8996Z" fill="#266342"/>
<path d="M81.4893 38.0196C90.63 38.0196 98.0401 30.4095 98.0401 21.022C98.0401 11.6344 90.63 4.02429 81.4893 4.02429C72.3485 4.02429 64.9385 11.6344 64.9385 21.022C64.9385 30.4095 72.3485 38.0196 81.4893 38.0196Z" fill="#266342"/>
<path d="M91.31 31.108C96.7339 25.5376 96.7339 16.5063 91.31 10.9359C85.8861 5.36558 77.0922 5.36559 71.6683 10.9359C66.2444 16.5063 66.2444 25.5376 71.6683 31.108C77.0922 36.6784 85.8861 36.6784 91.31 31.108Z" fill="#C7F4DE"/>
<path d="M77.1901 30.181L77.9808 27.9427C77.012 27.5302 76.1134 26.9803 75.4113 26.4165C74.8257 25.9457 74.6957 25.0891 75.1156 24.4581L75.1667 24.3819C75.629 23.6866 76.5718 23.5363 77.2104 24.0644C77.8614 24.6025 78.6454 25.0971 79.5439 25.4314C80.8518 25.918 81.9295 25.733 82.2628 24.7904C82.5787 23.8953 82.0441 23.0565 80.5542 21.835C78.3988 20.0724 77.1401 18.2703 77.9471 15.9855C78.6791 13.9123 80.6756 12.8154 83.3058 13.2348L84.0965 10.9965L86.3453 11.8342L85.6134 13.9074C86.4339 14.2565 87.0792 14.6265 87.5973 14.9974C88.2301 15.4504 88.3852 16.3455 87.9508 17.0003C87.501 17.6768 86.5938 17.8381 85.9514 17.3524C85.4699 16.9884 84.8496 16.6096 84.0397 16.3079C82.5478 15.753 81.8332 16.2327 81.6011 16.8925C81.3266 17.6699 81.9546 18.4642 83.639 19.9439C86.0198 21.9507 86.6641 23.6559 85.9148 25.7766C85.1742 27.8735 83.0968 29.1266 80.2913 28.6153L79.4428 31.0188L77.194 30.181H77.1901Z" fill="#266342"/>
<path d="M81.0657 38.1087C81.0657 38.1087 82.597 37.4341 83.0073 37.2936C83.4176 37.1532 84.7303 36.9 84.7303 36.9C84.7303 36.9 86.7682 34.7517 87.2873 34.6953C87.8064 34.6389 86.0978 37.0404 86.0978 37.0404L85.3871 37.7427C85.3871 37.7427 86.5361 36.7318 86.7547 36.5914C86.9733 36.4509 88.6963 33.8951 89.1345 34.0632C89.5717 34.2314 88.3958 36.0296 87.8218 36.984C87.2478 37.9385 84.6224 38.529 84.6224 38.529L81.0676 38.1077L81.0657 38.1087Z" fill="#F7A491"/>
<path d="M99.3693 45.0472C99.3664 45.4686 90.0658 45.5843 88.1377 54.055L86.8982 53.6366C89.6604 45.0265 98.8695 45.3736 99.3202 45.0561C99.326 45.0512 99.3289 45.0463 99.3289 45.0472H99.3703H99.3693Z" fill="#C7F4DE"/>
</svg>
